<svg width="20" height="20" viewBox="0 0 20 20" fill="none" xmlns="http://www.w3.org/2000/svg">
<path fill-rule="evenodd" clip-rule="evenodd" d="M15.5557 1.68531C13.9112 0.586491 11.9778 0 10 0V2C11.5823 2 13.129 2.46919 14.4446 3.34824C15.7602 4.22729 16.7855 5.47672 17.391 6.93853C17.9965 8.40034 18.155 10.0089 17.8463 11.5607C17.5376 13.1126 16.7757 14.538 15.6569 15.6569C14.538 16.7757 13.1126 17.5376 11.5607 17.8463C10.0089 18.155 8.40035 17.9965 6.93854 17.391C5.47673 16.7855 4.2273 15.7602 3.34825 14.4446C2.46919 13.129 2 11.5823 2 10L10 10L0 9.99996C-7.59186e-06 11.9778 0.586476 13.9112 1.68529 15.5557C2.78409 17.2002 4.34588 18.4819 6.17314 19.2388C8.0004 19.9957 10.0111 20.1937 11.9509 19.8079C13.8907 19.422 15.6725 18.4696 17.0711 17.0711C18.4696 15.6726 19.422 13.8907 19.8078 11.9509C20.1937 10.0111 19.9957 8.00044 19.2388 6.17317C18.4819 4.34591 17.2002 2.78412 15.5557 1.68531Z" fill="url(#paint0_angular_0_146)"/>
<path d="M8.04081 13.4041L5.95918 10.298C5.70203 9.91429 5.78775 9.40409 6.17142 9.15103C6.55509 8.89797 7.0653 8.9796 7.31836 9.36327L8.84897 11.6204L12.7551 7.71429C13.0857 7.38368 13.6286 7.37144 13.9592 7.70613C14.298 8.04491 14.2939 8.55511 13.9551 8.89388L9.31836 13.4898C9.18366 13.6572 8.5306 14.0123 8.04081 13.4041Z" fill="#5C81C2"/>
<defs>
<radialGradient id="paint0_angular_0_146" cx="0" cy="0" r="1" gradientUnits="userSpaceOnUse" gradientTransform="translate(10 10) scale(10)">
<stop offset="0.499508" stop-color="#5C81C2"/>
<stop offset="0.50009" stop-color="white" stop-opacity="0.01"/>
<stop offset="0.75" stop-color="white" stop-opacity="0.01"/>
<stop offset="0.7501" stop-color="#5C81C2"/>
</radialGradient>
</defs>
</svg>
